<?xml version="1.0" encoding="UTF-8"?>
<svg version="1.1" xmlns="http://www.w3.org/2000/svg" width="32" height="32">
<path d="M0 0 C10.56 0 21.12 0 32 0 C32 10.56 32 21.12 32 32 C21.44 32 10.88 32 0 32 C0 21.44 0 10.88 0 0 Z " fill="#314251" transform="translate(0,0)"/>
<path d="M0 0 C10.56 0 21.12 0 32 0 C32 5.28 32 10.56 32 16 C30.35 17.32 28.7 18.64 27 20 C23.55992685 18.52568294 21.25864302 17.01152403 19 14 C18.36946396 11.41939553 17.93757211 8.87554609 17.58984375 6.2421875 C17.16863285 3.63319039 17.16863285 3.63319039 14 2 C10.49739918 1.84516561 10.49739918 1.84516561 7 3 C4.71760829 5.92321965 4.71760829 5.92321965 3 9 C2.01 9.33 1.02 9.66 0 10 C0 6.7 0 3.4 0 0 Z " fill="#A4DEF5" transform="translate(0,0)"/>
<path d="M0 0 C1.485 0.99 1.485 0.99 3 2 C4.9896995 2.39013716 6.99019869 2.73202649 9 3 C9 3.99 9 4.98 9 6 C9.66 5.01 10.32 4.02 11 3 C12.32 3 13.64 3 15 3 C14.44271087 6.34373475 13.64826111 9.03312999 12 12 C11.34 12 10.68 12 10 12 C10 11.01 10 10.02 10 9 C9.01 9.33 8.02 9.66 7 10 C6.67 11.32 6.34 12.64 6 14 C11.94 14.33 17.88 14.66 24 15 C24.33 13.35 24.66 11.7 25 10 C26.4375 8.1875 26.4375 8.1875 28 7 C28.66 7 29.32 7 30 7 C30.09765625 13.15234375 30.09765625 13.15234375 30 15 C28.16965945 16.83034055 25.26788008 16.13042797 22.8125 16.1328125 C21.55695312 16.13410156 20.30140625 16.13539062 19.0078125 16.13671875 C18.35071289 16.13462402 17.69361328 16.1325293 17.01660156 16.13037109 C15.00838665 16.12502234 13.00039541 16.13031691 10.9921875 16.13671875 C9.73664062 16.13542969 8.48109375 16.13414063 7.1875 16.1328125 C6.02605469 16.13168457 4.86460937 16.13055664 3.66796875 16.12939453 C1 16 1 16 0 15 C-0.07313567 12.46950598 -0.09247527 9.96695163 -0.0625 7.4375 C-0.05798828 6.72658203 -0.05347656 6.01566406 -0.04882812 5.28320312 C-0.03700864 3.52209987 -0.01907263 1.76103964 0 0 Z " fill="#7EBFDA" transform="translate(1,15)"/>
<path d="M0 0 C2.97290049 2.47741707 3.00392921 4.04125672 3.375 7.9375 C3.43300781 8.62714844 3.49101562 9.31679687 3.55078125 10.02734375 C4.29477407 13.29444267 6.49447474 14.94418441 9 17 C9.8971875 16.5359375 9.8971875 16.5359375 10.8125 16.0625 C13 15 13 15 16 14 C16 19.28 16 24.56 16 30 C5.44 30 -5.12 30 -16 30 C-16 22.74 -16 15.48 -16 8 C-15.01 7.67 -14.02 7.34 -13 7 C-12.690625 6.21625 -12.38125 5.4325 -12.0625 4.625 C-9.61644007 -1.41820689 -5.95304477 -1.62355766 0 0 Z M-9.75 2.1875 C-10.1625 2.785625 -10.575 3.38375 -11 4 C-11.5775 4.804375 -12.155 5.60875 -12.75 6.4375 C-14.19102103 8.86310223 -14.19102103 8.86310223 -13.875 11.25 C-13.58625 11.8275 -13.2975 12.405 -13 13 C-12.01 13.33 -11.02 13.66 -10 14 C-10 14.66 -10 15.32 -10 16 C-11.65 15.01 -13.3 14.02 -15 13 C-15.02685095 15.47923801 -15.04676547 17.9581884 -15.0625 20.4375 C-15.07087891 21.14455078 -15.07925781 21.85160156 -15.08789062 22.58007812 C-15.09653588 24.38693559 -15.05220011 26.19387603 -15 28 C-13.16965945 29.83034055 -10.26788008 29.13042797 -7.8125 29.1328125 C-6.55695312 29.13410156 -5.30140625 29.13539062 -4.0078125 29.13671875 C-3.02216309 29.13357666 -3.02216309 29.13357666 -2.01660156 29.13037109 C-0.00838665 29.12502234 1.99960459 29.13031691 4.0078125 29.13671875 C5.26335938 29.13542969 6.51890625 29.13414063 7.8125 29.1328125 C8.97394531 29.13168457 10.13539062 29.13055664 11.33203125 29.12939453 C13.92063284 29.30337474 13.92063284 29.30337474 15 28 C15.07148199 26.64756083 15.08399454 25.29165633 15.0625 23.9375 C15.041875 22.638125 15.02125 21.33875 15 20 C11.83884224 21.36983503 11.0072908 21.9890638 9 25 C9 25.99 9 26.98 9 28 C8.67 27.67 8.34 27.34 8 27 C8.2475 25.7625 8.495 24.525 8.75 23.25 C9.12804587 21.1008275 9.12804587 21.1008275 9 19 C6.85308458 15.93468711 6.85308458 15.93468711 4 14 C3.34 14 2.68 14 2 14 C2.03480469 13.39671875 2.06960937 12.7934375 2.10546875 12.171875 C2.2263972 8.60160643 2.31820367 5.76743238 0.9375 2.4375 C-2.35143698 -0.00267905 -6.32581869 -0.13605161 -9.75 2.1875 Z " fill="#1C6995" transform="translate(16,2)"/>
<path d="M0 0 C10.56 0 21.12 0 32 0 C32 5.28 32 10.56 32 16 C31.67 16 31.34 16 31 16 C30.67 11.38 30.34 6.76 30 2 C26.60283223 1.86483417 23.21105392 1.76580769 19.8125 1.6875 C18.85279297 1.64560547 17.89308594 1.60371094 16.90429688 1.56054688 C10.95862175 1.41943053 10.95862175 1.41943053 5.93359375 4.40625 C5.29550781 5.2621875 4.65742187 6.118125 4 7 C3.01769502 8.0173873 2.02530403 9.02596117 1 10 C0.67 10 0.34 10 0 10 C0 6.7 0 3.4 0 0 Z " fill="#109CE6" transform="translate(0,0)"/>
<path d="M0 0 C0.99 0.33 1.98 0.66 3 1 C3 5.29 3 9.58 3 14 C-3.75 13.25 -3.75 13.25 -6 11 C-5.70236716 6.83314025 -2.89479932 2.89479932 0 0 Z " fill="#F0F0F0" transform="translate(8,3)"/>
<path d="M0 0 C0.33 0 0.66 0 1 0 C1.33 4.62 1.66 9.24 2 14 C9.26 14.33 16.52 14.66 24 15 C24.33 13.35 24.66 11.7 25 10 C26.4375 8.1875 26.4375 8.1875 28 7 C28.66 7 29.32 7 30 7 C30.09765625 13.15234375 30.09765625 13.15234375 30 15 C28.16965945 16.83034055 25.26788008 16.13042797 22.8125 16.1328125 C21.55695312 16.13410156 20.30140625 16.13539062 19.0078125 16.13671875 C18.35071289 16.13462402 17.69361328 16.1325293 17.01660156 16.13037109 C15.00838665 16.12502234 13.00039541 16.13031691 10.9921875 16.13671875 C9.73664062 16.13542969 8.48109375 16.13414063 7.1875 16.1328125 C6.02605469 16.13168457 4.86460937 16.13055664 3.66796875 16.12939453 C1 16 1 16 0 15 C-0.07313567 12.46950598 -0.09247527 9.96695163 -0.0625 7.4375 C-0.05798828 6.72658203 -0.05347656 6.01566406 -0.04882812 5.28320312 C-0.03700864 3.52209987 -0.01907263 1.76103964 0 0 Z " fill="#F8F8F8" transform="translate(1,15)"/>
<path d="M0 0 C0.91058531 3.07322544 1.08886184 5.80097361 1 9 C1.639375 9.28875 2.27875 9.5775 2.9375 9.875 C5 11 5 11 6 13 C4.02 13 2.04 13 0 13 C0 12.01 0 11.02 0 10 C-1.65 9.67 -3.3 9.34 -5 9 C-5.3125 6.1875 -5.3125 6.1875 -5 3 C-2.5 1.125 -2.5 1.125 0 0 Z " fill="#49ABDE" transform="translate(17,7)"/>
<path d="M0 0 C0.99 0 1.98 0 3 0 C3 0.66 3 1.32 3 2 C3.99 2 4.98 2 6 2 C6 3.32 6 4.64 6 6 C5.01 6.495 5.01 6.495 4 7 C4.33 7.99 4.66 8.98 5 10 C2.69 10 0.38 10 -2 10 C-1.67 9.01 -1.34 8.02 -1 7 C-1.66 6.67 -2.32 6.34 -3 6 C-3 4.68 -3 3.36 -3 2 C-2.01 2 -1.02 2 0 2 C0 1.34 0 0.68 0 0 Z " fill="#E1ECF1" transform="translate(23,3)"/>
<path d="M0 0 C1.9375 2.5625 1.9375 2.5625 3 5 C2.01 5.33 1.02 5.66 0 6 C-0.33 4.68 -0.66 3.36 -1 2 C-4.28841143 1.41439551 -4.28841143 1.41439551 -8 2 C-10.27673715 4.00110311 -11.89666273 6.17269825 -13 9 C-12.85063868 11.16194341 -12.85063868 11.16194341 -12 13 C-11.34 13.33 -10.68 13.66 -10 14 C-10 14.66 -10 15.32 -10 16 C-12.46800047 14.84826645 -14.04783565 13.95216435 -16 12 C-15.625 9.375 -15.625 9.375 -15 7 C-14.34 7 -13.68 7 -13 7 C-12.7525 6.236875 -12.505 5.47375 -12.25 4.6875 C-9.5004986 -1.22392802 -6.119747 -1.78029004 0 0 Z " fill="#3E3E45" transform="translate(16,2)"/>
<path d="M0 0 C2.00720923 0.28674418 4.0085944 0.61866701 6 1 C6 2.98 6 4.96 6 7 C2.7 7 -0.6 7 -4 7 C-1.125 1.125 -1.125 1.125 0 0 Z " fill="#BCCED9" transform="translate(18,21)"/>
<path d="M0 0 C-0.55728913 3.34373475 -1.35173889 6.03312999 -3 9 C-3.66 9 -4.32 9 -5 9 C-5 8.01 -5 7.02 -5 6 C-5.99 6.33 -6.98 6.66 -8 7 C-8 7.99 -8 8.98 -8 10 C-8.66 10 -9.32 10 -10 10 C-9.69481346 6.43949035 -8.99971192 4.99964963 -6.6875 2.1875 C-4 0 -4 0 0 0 Z " fill="#E3E3E3" transform="translate(16,18)"/>
<path d="M0 0 C0.99 0 1.98 0 3 0 C3.33 1.32 3.66 2.64 4 4 C7.96 4 11.92 4 16 4 C16 4.33 16 4.66 16 5 C7.585 5.495 7.585 5.495 -1 6 C-1 3 -1 3 0 0 Z " fill="#5C8196" transform="translate(8,24)"/>
<path d="M0 0 C0.33 0.66 0.66 1.32 1 2 C3.31 2 5.62 2 8 2 C8.33 3.65 8.66 5.3 9 7 C8.67 6.01 8.34 5.02 8 4 C6.02 4 4.04 4 2 4 C0.68 6.31 -0.64 8.62 -2 11 C-2.99 10.67 -3.98 10.34 -5 10 C-3.35 6.7 -1.7 3.4 0 0 Z " fill="#5E5D61" transform="translate(16,18)"/>
<path d="M0 0 C0.99 0.33 1.98 0.66 3 1 C2.67 3.31 2.34 5.62 2 8 C1.01 8.33 0.02 8.66 -1 9 C-1.66 7.02 -2.32 5.04 -3 3 C-2.01 2.01 -1.02 1.02 0 0 Z " fill="#ABC6D3" transform="translate(8,3)"/>
<path d="M0 0 C1.4540625 0.0309375 1.4540625 0.0309375 2.9375 0.0625 C2.15468695 1.40105056 1.36098123 2.73323644 0.5625 4.0625 C0.12164063 4.805 -0.31921875 5.5475 -0.7734375 6.3125 C-1.19882812 6.89 -1.62421875 7.4675 -2.0625 8.0625 C-2.7225 8.0625 -3.3825 8.0625 -4.0625 8.0625 C-4.10491723 5.72955225 -4.10342937 3.39547433 -4.0625 1.0625 C-3.0625 0.0625 -3.0625 0.0625 0 0 Z " fill="#BEDDE9" transform="translate(5.0625,0.9375)"/>
<path d="M0 0 C0 2.31 0 4.62 0 7 C-1.65 7.33 -3.3 7.66 -5 8 C-3.91891892 0 -3.91891892 0 0 0 Z " fill="#8AD2EE" transform="translate(30,22)"/>
<path d="M0 0 C0.66 0 1.32 0 2 0 C1.649375 0.5775 1.29875 1.155 0.9375 1.75 C-0.18726544 3.93510649 -0.18726544 3.93510649 0.25 6.1875 C0.85008433 8.19815586 0.85008433 8.19815586 3 9 C3 9.66 3 10.32 3 11 C0.53199953 9.84826645 -1.04783565 8.95216435 -3 7 C-2.625 4.375 -2.625 4.375 -2 2 C-1.34 2 -0.68 2 0 2 C0 1.34 0 0.68 0 0 Z " fill="#4C4E55" transform="translate(3,7)"/>
<path d="M0 0 C3.3 0 6.6 0 10 0 C9.01 0.33 8.02 0.66 7 1 C7 1.66 7 2.32 7 3 C5.35 3.33 3.7 3.66 2 4 C1.34 2.68 0.68 1.36 0 0 Z " fill="#8BD0EC" transform="translate(16,2)"/>
<path d="M0 0 C1.9375 0.3125 1.9375 0.3125 4 1 C4.33 1.99 4.66 2.98 5 4 C2.69 4 0.38 4 -2 4 C-1.34 2.68 -0.68 1.36 0 0 Z " fill="#F5F5F5" transform="translate(23,9)"/>
<path d="M0 0 C1.98 0.495 1.98 0.495 4 1 C4 2.32 4 3.64 4 5 C2.35 4.67 0.7 4.34 -1 4 C-0.67 2.68 -0.34 1.36 0 0 Z " fill="#4DAEDC" transform="translate(12,3)"/>
<path d="M0 0 C0.66 0 1.32 0 2 0 C1.67 1.98 1.34 3.96 1 6 C-0.65 6.33 -2.3 6.66 -4 7 C-4 6.34 -4 5.68 -4 5 C-3.01 4.34 -2.02 3.68 -1 3 C-0.67 2.01 -0.34 1.02 0 0 Z " fill="#1C5A7C" transform="translate(30,16)"/>
</svg>
